<svg width="42" height="59" viewBox="0 0 42 59" fill="none" xmlns="http://www.w3.org/2000/svg">
<path d="M39.4671 15.5635C39.4866 15.5699 39.5061 15.5763 39.5256 15.5827C41.5175 20.1051 42.1387 25.5637 41.975 30.4765C41.9281 31.8875 42.0891 32.2344 41.8123 32.7099C41.3817 32.9646 31.5643 32.7999 30.0304 32.8602C29.8161 31.7302 30.1305 29.6331 29.8088 28.8179C28.1035 27.2903 28.5711 32.1232 28.5666 32.8215C27.5472 32.8953 25.7488 32.829 24.6652 32.8247L18.5024 32.83C17.1231 32.8194 15.1305 32.7267 13.8419 32.9885C12.8955 33.1731 12.008 33.5844 11.2554 34.1872C10.1479 35.0743 9.12206 36.7493 9.0668 38.1212C9.01346 39.448 8.89619 43.343 9.17577 44.4807C9.38966 45.3237 9.7843 46.1102 10.3322 46.7857C11.3635 48.0731 12.8685 48.8926 14.5095 49.0601C16.8836 49.2956 18.2268 48.4332 19.9402 47.0277C19.8677 47.9349 19.9239 49.0102 19.9254 49.942L19.9196 55.3196C19.9173 56.0113 19.9445 57.3225 19.869 57.9636C19.7602 58.0605 19.7146 58.1234 19.5402 58.0982C14.5429 57.3777 11.4046 55.3471 7.88384 51.7728C7.60485 51.4556 7.33101 51.1341 7.06238 50.8083C1.97094 44.5289 -0.353909 35.497 0.0434931 27.42C0.0570127 27.1453 0.0994743 26.8406 0.12802 26.5651C1.86968 26.4913 4.10101 26.5723 5.895 26.5712L18.0991 26.5536C19.6292 26.5498 23.1616 26.6674 24.463 26.4954C23.7793 27.5727 22.7696 28.0297 22.0152 28.9996C21.5099 29.6494 21.9373 30.0793 22.4748 30.4206C23.172 30.0499 24.7319 28.5785 25.4102 27.972C26.6777 26.8386 27.9525 25.7134 29.2346 24.5965C29.4909 24.7566 30.0575 25.295 30.3419 25.5345C31.7056 26.6729 32.9626 27.9381 34.3291 29.0742C34.8427 29.5012 36.1035 31.0658 36.6142 29.9333C36.6811 29.7849 36.8029 29.5481 36.7272 29.3907C36.1167 28.1208 30.942 24.4811 30.6379 23.5619C30.7814 23.0856 38.6586 16.15 39.4671 15.5635Z" fill="white"/>
<path d="M19.9731 0.0306767C20.2313 0.016055 20.4897 0.00598857 20.7482 0.000551355C25.3009 -0.0635196 24.7267 5.47333 27.2473 7.81861C30.1243 10.4956 34.0338 7.0862 36.899 10.3994C37.7039 11.33 38.421 12.693 38.7974 13.8845C38.8307 13.9899 38.414 14.3395 38.3467 14.4324C34.5481 17.7894 30.3398 21.6522 26.518 24.8744C26.2033 25.1397 22.5347 25.0558 22.0527 25.0541L16.5801 25.0589C16.3563 25.06 15.3251 25.0852 15.2641 24.9534C14.9508 24.276 15.0703 21.5862 15.1098 20.9159C15.7137 20.0768 16.4757 19.546 16.7321 18.4212C17.8867 13.3576 10.6753 11.5159 9.10642 16.3852C8.91509 16.9791 8.95675 17.5911 8.9796 18.2129C9.24999 19.2869 9.48827 19.5646 10.2122 20.3411C10.7977 21.0812 10.6617 22.238 10.671 23.1181C10.6759 23.5876 10.7988 24.7322 10.4432 24.9982C9.62082 25.1243 0.791952 25.0946 0.439187 24.9016C-0.361355 23.2166 2.83481 13.2472 4.34246 11.5872C4.51469 11.3976 10.3482 11.4877 11.1609 11.4923L19.7204 11.4795C20.3396 11.4806 23.4747 11.6371 23.8246 11.4223C24.0347 11.2933 24.1866 10.944 24.2157 10.7078C24.2368 10.5358 24.1946 10.3756 24.0769 10.2459C23.8881 10.0376 23.578 9.95712 23.3088 9.92068C22.5666 9.82016 21.7346 9.89665 20.9798 9.90407C19.1083 9.92252 17.1873 10.0114 15.3202 9.9295C14.9818 9.91465 14.5364 9.89974 14.2367 9.73427C13.5413 9.35029 9.72509 5.95474 9.01854 5.187C12.8685 1.90328 14.8652 0.742291 19.9731 0.0306767Z" fill="white"/>
<path d="M41.1388 34.2787C41.4452 34.273 41.4079 34.2265 41.6247 34.3712C41.7114 34.733 41.1323 37.54 41.0089 38.0345C39.7073 43.2487 37.3335 48.5184 33.5238 52.3838C32.8148 53.1032 31.5859 54.2478 30.7134 54.771C30.635 54.1209 30.6602 52.7908 30.6447 52.0886C30.5951 49.6945 30.5884 47.2997 30.6246 44.9054C30.6357 43.8673 30.6712 42.823 30.6306 41.7838C30.6024 41.1427 29.9865 40.6279 29.4438 41.1813C28.9947 41.6395 29.1889 42.6351 29.1907 43.254L29.1909 47.4886C29.1931 48.1862 29.251 51.7127 29.0114 52.1686C28.9871 52.1632 28.951 52.1575 28.9271 52.1455C28.7925 52.0782 21.931 42.4966 21.6224 41.7503C21.0646 40.4015 21.5484 38.5114 21.0652 36.9921C20.8659 36.3654 20.5012 35.7527 20.0848 35.2452C19.8825 34.9987 19.6253 34.759 19.4922 34.467C19.7801 34.2167 25.253 34.3078 25.9254 34.3089L35.6767 34.3151C37.454 34.313 39.3731 34.3464 41.1388 34.2787Z" fill="white"/>
<path d="M14.707 34.3364C15.6829 34.1852 16.9893 34.6489 17.8057 35.18C20.2016 36.7387 19.873 39.3895 19.9417 41.8214C20.0256 44.7882 18.717 46.9798 15.6948 47.5892C14.682 47.6684 13.6699 47.4296 12.7995 46.9059C11.6996 46.2445 10.9246 45.0942 10.6419 43.8684C10.3854 42.756 10.3713 39.2835 10.5692 38.2531C10.6778 37.6641 10.8936 37.1 11.2058 36.589C12.0474 35.2254 13.2438 34.6929 14.707 34.3364Z" fill="white"/>
<path d="M21.4973 44.4915L21.6397 44.5549C21.894 45.0412 23.1377 46.7018 23.5035 47.2144C24.8184 49.039 26.1089 50.8812 27.3745 52.7403C27.9275 53.5409 28.877 54.8202 29.3172 55.6228C29.1874 55.9619 27.9015 56.5129 27.5252 56.6896C26.6584 57.1257 22.3688 58.4996 21.5594 58.04C21.2285 57.1525 21.3316 45.949 21.4973 44.4915Z" fill="white"/>
<path d="M31.4295 0.0302375C32.9542 -0.167045 34.3518 0.904674 34.5568 2.42834C34.7616 3.95209 33.6969 5.35496 32.1742 5.56745C30.6408 5.78149 29.2258 4.70749 29.0194 3.17302C28.8131 1.63855 29.894 0.228916 31.4295 0.0302375ZM30.9797 3.48471C31.3036 3.63144 31.5364 3.74995 31.8885 3.8235C33.1459 3.17155 32.8765 1.86427 31.7907 1.84583C30.7495 2.02202 30.8079 2.58624 30.9797 3.48471Z" fill="white"/>
<path d="M12.799 15.0639C14.1318 15.012 15.2549 16.049 15.3094 17.3817C15.3638 18.7145 14.3289 19.8397 12.9962 19.8966C11.6601 19.9537 10.5312 18.9153 10.4767 17.579C10.4221 16.2427 11.4626 15.1158 12.799 15.0639Z" fill="white"/>
<path d="M7.88301 6.3584C8.15237 6.44495 11.5182 9.46856 11.9941 9.90361C11.1236 9.9499 10.0757 9.9186 9.19543 9.91C7.9919 9.90082 6.56757 9.88024 5.38086 9.94454C5.69284 8.97495 7.15288 7.15017 7.88301 6.3584Z" fill="white"/>
<path d="M12.4991 21.4254C12.8607 21.402 13.2251 21.4088 13.5875 21.4102C13.6553 22.2339 13.6398 23.2027 13.6647 24.0387C13.6771 24.4527 13.6636 24.73 13.3822 25.0043C13.17 25.0294 12.5693 25.0913 12.4954 24.9627C12.2237 24.4899 12.2744 21.7743 12.4991 21.4254Z" fill="white"/>
</svg>
